<svg width="60" height="60" viewBox="0 0 60 60" fill="none" xmlns="http://www.w3.org/2000/svg">
<path d="M30 48.75C40.3553 48.75 48.75 40.3553 48.75 30C48.75 19.6447 40.3553 11.25 30 11.25C19.6447 11.25 11.25 19.6447 11.25 30C11.25 40.3553 19.6447 48.75 30 48.75Z" stroke="#191D20" stroke-width="2" stroke-miterlimit="10" stroke-linecap="square"/>
<path d="M36.5 37.5C35.8424 38.6424 34.8953 39.5913 33.7542 40.2511C32.613 40.9109 31.3182 41.2583 30 41.2583C28.6818 41.2583 27.387 40.9109 26.2458 40.2511C25.1047 39.5913 24.1576 38.6424 23.5 37.5" stroke="#191D20" stroke-width="2" stroke-miterlimit="10" stroke-linecap="square"/>
<path fill-rule="evenodd" clip-rule="evenodd" d="M22.0499 21.25C21.0349 21.2244 20.0317 21.4719 19.1451 21.9666C18.2585 22.4614 17.5211 23.1852 17.0099 24.0625C16.6377 24.7024 16.3959 25.4097 16.2986 26.1435C16.2013 26.8774 16.2504 27.6233 16.443 28.338C16.6355 29.0528 16.9678 29.7224 17.4207 30.308C17.8735 30.8936 18.4379 31.3837 19.0812 31.75C20.381 32.4967 21.9232 32.6994 23.3718 32.314C24.8204 31.9286 26.058 30.9864 26.8149 29.6925L28.7874 26.3C28.8738 26.047 29.0372 25.8274 29.2546 25.6719C29.472 25.5164 29.7326 25.4328 29.9999 25.4328C30.2672 25.4328 30.5279 25.5164 30.7453 25.6719C30.9627 25.8274 31.126 26.047 31.2124 26.3L33.1849 29.6925C33.9419 30.9864 35.1795 31.9286 36.6281 32.314C38.0767 32.6994 39.6189 32.4967 40.9187 31.75C41.5613 31.3837 42.1251 30.8939 42.5775 30.3086C43.0299 29.7234 43.3619 29.0544 43.5545 28.3402C43.747 27.626 43.7963 26.8807 43.6994 26.1474C43.6025 25.4141 43.3614 24.7072 42.9899 24.0675C42.4794 23.1893 41.7423 22.4645 40.8556 21.9688C39.969 21.4731 38.9654 21.2249 37.9499 21.25H22.0499Z" fill="#191D20"/>
</svg>
