<svg width="16" height="16" viewBox="0 0 16 16" fill="none" xmlns="http://www.w3.org/2000/svg">
<path d="M4.23353 12C3.37421 12 2.62526 11.838 1.98668 11.5139C1.34811 11.1898 0.855378 10.7283 0.508497 10.1295C0.169499 9.52356 0 8.8155 0 8.00528C0 7.18802 0.161615 6.47996 0.484846 5.88111C0.81596 5.28225 1.2811 4.82078 1.88026 4.4967C2.47941 4.16557 3.185 4 3.99702 4C4.64348 4 5.22293 4.11625 5.73537 4.34874C6.24781 4.5742 6.66564 4.90181 6.98887 5.33157C7.3121 5.75429 7.52102 6.25451 7.61563 6.83223L5.78267 7.15984C5.7196 6.82166 5.60529 6.52928 5.43973 6.28269C5.28206 6.03611 5.07708 5.84941 4.82481 5.72259C4.58041 5.59577 4.30448 5.53236 3.99702 5.53236C3.59495 5.53236 3.24019 5.631 2.93273 5.82827C2.63315 6.02554 2.40058 6.31088 2.23502 6.68428C2.07735 7.05768 1.99851 7.49802 1.99851 8.00528C1.99851 8.5055 2.08917 8.94232 2.2705 9.31572C2.45182 9.68912 2.71198 9.97446 3.05098 10.1717C3.38998 10.369 3.7881 10.4676 4.24536 10.4676C4.61589 10.4676 4.95094 10.3901 5.25052 10.2351C5.55799 10.0801 5.81026 9.86173 6.00736 9.57992C6.20445 9.29106 6.33059 8.95288 6.38577 8.56539L8.2542 8.81902C8.1596 9.46719 7.93491 10.0308 7.58015 10.5099C7.22538 10.989 6.76025 11.3589 6.18474 11.6196C5.60923 11.8732 4.95883 12 4.23353 12Z" fill="#6DFC3F"/>
<path d="M8.11239 4.24306H10.17L12.0503 10.0978H12.0739L13.9305 4.24306H16L13.2801 11.7675H10.8441L8.11239 4.24306Z" fill="#6DFC3F"/>
</svg>
