<svg width="143" height="33" viewBox="0 0 143 33" fill="none" xmlns="http://www.w3.org/2000/svg">
<path fill-rule="evenodd" clip-rule="evenodd" d="M10.8959 11.2079C16.9096 11.2079 21.792 16.0902 21.792 22.104C21.792 28.1177 16.9096 33 10.8959 33C4.88236 33 0 28.1177 0 22.104C0 16.0902 4.88236 11.2079 10.8959 11.2079ZM10.8959 17.1663C13.6212 17.1663 15.8337 19.3788 15.8337 22.104C15.8337 24.8291 13.6212 27.0416 10.8959 27.0416C8.17073 27.0416 5.95824 24.8291 5.95824 22.104C5.95824 19.3788 8.17073 17.1663 10.8959 17.1663Z" fill="#7D888F"/>
<path fill-rule="evenodd" clip-rule="evenodd" d="M10.8959 11.2079C16.9096 11.2079 21.792 16.0902 21.792 22.104C21.792 28.1177 16.9096 33 10.8959 33C4.88236 33 0 28.1177 0 22.104C0 16.0902 4.88236 11.2079 10.8959 11.2079ZM10.8959 11.9625C16.4932 11.9625 21.0376 16.5066 21.0376 22.104C21.0376 27.7011 16.4932 32.2454 10.8959 32.2454C5.29876 32.2454 0.754425 27.7011 0.754425 22.104C0.754425 16.5066 5.29876 11.9625 10.8959 11.9625ZM10.8959 16.4117C7.75433 16.4117 5.20366 18.9622 5.20366 22.104C5.20366 25.2455 7.75433 27.7962 10.8959 27.7962C14.0376 27.7962 16.5882 25.2455 16.5882 22.104C16.5882 18.9622 14.0376 16.4117 10.8959 16.4117ZM10.8959 17.1663C13.6212 17.1663 15.8337 19.3788 15.8337 22.104C15.8337 24.8291 13.6212 27.0416 10.8959 27.0416C8.17073 27.0416 5.95824 24.8291 5.95824 22.104C5.95824 19.3788 8.17073 17.1663 10.8959 17.1663Z" fill="#EDF5FA"/>
<path fill-rule="evenodd" clip-rule="evenodd" d="M59.4039 11.2079C65.4176 11.2079 70.2999 16.0902 70.2999 22.104C70.2999 28.1177 65.4176 33 59.4039 33C53.3902 33 48.5078 28.1177 48.5078 22.104C48.5078 16.0902 53.3902 11.2079 59.4039 11.2079ZM59.4039 17.167C62.1286 17.167 64.3408 19.3792 64.3408 22.104C64.3408 24.8287 62.1286 27.0409 59.4039 27.0409C56.6791 27.0409 54.467 24.8287 54.467 22.104C54.467 19.3792 56.6791 17.167 59.4039 17.167Z" fill="#7D888F"/>
<path fill-rule="evenodd" clip-rule="evenodd" d="M59.4039 11.2079C65.4176 11.2079 70.2999 16.0902 70.2999 22.104C70.2999 28.1177 65.4176 33 59.4039 33C53.3902 33 48.5078 28.1177 48.5078 22.104C48.5078 16.0902 53.3902 11.2079 59.4039 11.2079ZM59.4039 11.9625C65.0012 11.9625 69.5454 16.5066 69.5454 22.104C69.5454 27.7011 65.0012 32.2454 59.4039 32.2454C53.8066 32.2454 49.2624 27.7011 49.2624 22.104C49.2624 16.5066 53.8066 11.9625 59.4039 11.9625ZM59.4039 16.4125C56.2627 16.4125 53.7124 18.9627 53.7124 22.104C53.7124 25.2451 56.2627 27.7954 59.4039 27.7954C62.5452 27.7954 65.0954 25.2451 65.0954 22.104C65.0954 18.9627 62.5452 16.4125 59.4039 16.4125ZM59.4039 17.167C62.1286 17.167 64.3408 19.3792 64.3408 22.104C64.3408 24.8287 62.1286 27.0409 59.4039 27.0409C56.6791 27.0409 54.467 24.8287 54.467 22.104C54.467 19.3792 56.6791 17.167 59.4039 17.167Z" fill="#EDF5FA"/>
<path fill-rule="evenodd" clip-rule="evenodd" d="M96.0783 11.584C96.0783 17.5977 91.1959 22.4801 85.1822 22.4801C79.1685 22.4801 74.2861 17.5977 74.2861 11.584H80.2784C80.2784 14.2905 82.4757 16.4878 85.1822 16.4878C87.8887 16.4878 90.0859 14.2905 90.0859 11.584H96.0783Z" fill="#7D888F"/>
<path fill-rule="evenodd" clip-rule="evenodd" d="M96.0783 11.584C96.0783 17.5977 91.1959 22.4801 85.1822 22.4801C79.1685 22.4801 74.2861 17.5977 74.2861 11.584H80.2784C80.2784 14.2905 82.4757 16.4878 85.1822 16.4878C87.8887 16.4878 90.0859 14.2905 90.0859 11.584H96.0783ZM95.2959 12.3386C94.9094 17.584 90.5257 21.7255 85.1822 21.7255C79.8387 21.7255 75.455 17.584 75.0684 12.3386H79.5739C79.9431 15.1052 82.315 17.2424 85.1822 17.2424C88.0493 17.2424 90.4211 15.1052 90.7905 12.3386H95.2959Z" fill="#EDF5FA"/>
<path fill-rule="evenodd" clip-rule="evenodd" d="M134.561 29.0228C134.561 26.9391 136.252 25.2476 138.336 25.2476C140.419 25.2476 142.111 26.9391 142.111 29.0228C142.111 31.1062 140.419 32.7979 138.336 32.7979C136.252 32.7979 134.561 31.1062 134.561 29.0228Z" fill="#6DFC3F"/>
<path fill-rule="evenodd" clip-rule="evenodd" d="M35.15 11.2079C41.1637 11.2079 46.046 16.0902 46.046 22.104C46.046 28.1177 41.1637 33 35.15 33C29.1363 33 24.2539 28.1177 24.2539 22.104C24.2539 16.0902 29.1363 11.2079 35.15 11.2079ZM35.15 17.1666C37.8749 17.1666 40.0872 19.3789 40.0872 22.104C40.0872 24.8288 37.8749 27.0412 35.15 27.0412C32.4249 27.0412 30.2126 24.8288 30.2126 22.104C30.2126 19.3789 32.4249 17.1666 35.15 17.1666Z" fill="#7D888F"/>
<path fill-rule="evenodd" clip-rule="evenodd" d="M35.15 11.2079C41.1637 11.2079 46.046 16.0902 46.046 22.104C46.046 28.1177 41.1637 33 35.15 33C29.1363 33 24.2539 28.1177 24.2539 22.104C24.2539 16.0902 29.1363 11.2079 35.15 11.2079ZM35.15 11.9625C40.7471 11.9625 45.2915 16.5066 45.2915 22.104C45.2915 27.7011 40.7471 32.2454 35.15 32.2454C29.5527 32.2454 25.0085 27.7011 25.0085 22.104C25.0085 16.5066 29.5527 11.9625 35.15 11.9625ZM35.15 16.412C32.0085 16.412 29.458 18.9625 29.458 22.104C29.458 25.2454 32.0085 27.7957 35.15 27.7957C38.2914 27.7957 40.8418 25.2454 40.8418 22.104C40.8418 18.9625 38.2914 16.412 35.15 16.412ZM35.15 17.1666C37.8749 17.1666 40.0872 19.3789 40.0872 22.104C40.0872 24.8288 37.8749 27.0412 35.15 27.0412C32.4249 27.0412 30.2126 24.8288 30.2126 22.104C30.2126 19.3789 32.4249 17.1666 35.15 17.1666Z" fill="#EDF5FA"/>
<path d="M21.7921 11.6015H15.7998V32.6064H21.7921V11.6015Z" fill="#EDF5FA"/>
<path d="M70.2999 11.6015H64.3076V32.6064H70.2999V11.6015Z" fill="#EDF5FA"/>
<path d="M80.2784 11.584H74.2861V32.6063H80.2784V11.584Z" fill="#EDF5FA"/>
<path d="M96.0782 11.584H90.0859V32.6063H96.0782V11.584Z" fill="#EDF5FA"/>
<path fill-rule="evenodd" clip-rule="evenodd" d="M116.069 22.0864H110.077C110.077 16.0727 114.959 11.584 120.973 11.584C126.987 11.584 131.869 16.0727 131.869 22.0864V32.6063H125.877V22.0864C125.877 19.3799 123.68 17.1827 120.973 17.1827C118.267 17.1827 116.069 19.3799 116.069 22.0864Z" fill="#7D888F"/>
<path fill-rule="evenodd" clip-rule="evenodd" d="M116.069 22.0864H110.077C110.077 16.0727 114.959 11.584 120.973 11.584C126.987 11.584 131.869 16.0727 131.869 22.0864V32.6063H125.877V22.0864C125.877 19.3799 123.68 17.1827 120.973 17.1827C118.267 17.1827 116.069 19.3799 116.069 22.0864ZM131.869 22.841L131.115 22.0864V31.8518H126.631V22.0864C126.631 18.9635 124.096 16.4281 120.973 16.4281C118.106 16.4281 115.734 18.5651 115.365 21.3319H110.86C111.248 16.1265 115.638 12.3386 120.973 12.3386C126.563 12.3386 131.115 16.4967 131.115 22.0864L131.869 22.841ZM131.869 22.841L131.115 22.0864C131.115 21.7819 131.868 22.8391 131.869 22.841Z" fill="#EDF5FA"/>
<path d="M46.046 0H40.0537V32.6064H46.046V0Z" fill="#EDF5FA"/>
<path d="M116.069 0H110.077V32.6064H116.069V0Z" fill="#EDF5FA"/>
</svg>
