<svg width="137" height="92" viewBox="0 0 137 92" fill="none" xmlns="http://www.w3.org/2000/svg">
<path d="M56.875 10.125H32.125" stroke="#6DFC3F" stroke-linecap="round" stroke-linejoin="round"/>
<path d="M108.625 91.125C123.537 91.125 135.625 79.0367 135.625 64.125C135.625 49.2133 123.537 37.125 108.625 37.125C93.7133 37.125 81.625 49.2133 81.625 64.125C81.625 79.0367 93.7133 91.125 108.625 91.125Z" stroke="#6DFC3F" stroke-linecap="round" stroke-linejoin="round"/>
<path d="M27.625 91.125C42.5367 91.125 54.625 79.0367 54.625 64.125C54.625 49.2133 42.5367 37.125 27.625 37.125C12.7133 37.125 0.625 49.2133 0.625 64.125C0.625 79.0367 12.7133 91.125 27.625 91.125Z" stroke="#6DFC3F" stroke-linecap="round" stroke-linejoin="round"/>
<path d="M98.5 23.625H47.875L27.625 64.125H65.875L98.5 23.625Z" stroke="#6DFC3F" stroke-linecap="round" stroke-linejoin="round"/>
<path d="M41.9082 10.125L65.8752 64.125" stroke="#6DFC3F" stroke-linecap="round" stroke-linejoin="round"/>
<path d="M108.625 64.125L92.875 1.125" stroke="#6DFC3F" stroke-linecap="round" stroke-linejoin="round"/>
<path d="M79.375 1.125H110.875C113.262 1.125 115.551 2.07321 117.239 3.76104C118.927 5.44887 119.875 7.73805 119.875 10.125C119.875 12.5119 118.927 14.8011 117.239 16.489C115.551 18.1768 113.262 19.125 110.875 19.125" stroke="#6DFC3F" stroke-linecap="round" stroke-linejoin="round"/>
</svg>
